<svg width="16" height="19" viewBox="0 0 16 19" fill="none" xmlns="http://www.w3.org/2000/svg">
<path d="M1 17.0556V1.94444C1 1.69396 1.0995 1.45374 1.27662 1.27662C1.45374 1.0995 1.69396 1 1.94444 1H7.77356C8.27448 1.00011 8.75485 1.19918 9.109 1.55344L13.6688 6.11322C14.023 6.46737 14.2221 6.94774 14.2222 7.44867V17.0556C14.2222 17.306 14.1227 17.5463 13.9456 17.7234C13.7685 17.9005 13.5283 18 13.2778 18H1.94444C1.69396 18 1.45374 17.9005 1.27662 17.7234C1.0995 17.5463 1 17.306 1 17.0556Z" stroke="white" stroke-width="2" stroke-linejoin="round"/>
<path d="M7.61115 1V6.66667C7.61115 6.91715 7.71065 7.15737 7.88777 7.33449C8.06488 7.51161 8.30511 7.61111 8.55559 7.61111H14.2223" stroke="white" stroke-width="2" stroke-linejoin="round"/>
</svg>
