<svg width="21" height="19" viewBox="0 0 21 19" fill="none" xmlns="http://www.w3.org/2000/svg">
<path fill-rule="evenodd" clip-rule="evenodd" d="M18.9083 0.125C19.436 0.124833 19.9443 0.324134 20.3312 0.68295C20.7182 1.04177 20.9552 1.53358 20.9948 2.05979L21 2.21667V16.8584C21.0002 17.3861 20.8009 17.8943 20.442 18.2813C20.0832 18.6682 19.5914 18.9052 19.0652 18.9448L18.9083 18.95H2.17498C1.64728 18.9502 1.13901 18.7509 0.752074 18.3921C0.365135 18.0333 0.12812 17.5414 0.0885424 17.0152L0.0833131 16.8584V2.21667C0.0831461 1.68897 0.282447 1.1807 0.641262 0.793761C1.00008 0.406822 1.49189 0.169807 2.01811 0.130229L2.17498 0.125H18.9083ZM18.9083 2.21667H2.17498V16.8584H18.9083V2.21667ZM8.80557 4.97558L9.34731 5.21612L9.70081 5.38346L10.1055 5.58216L10.5553 5.81016L11.0468 6.07161L11.577 6.36445L11.8552 6.52342L12.397 6.84239L12.8927 7.14778L13.3424 7.43329L13.7398 7.69789L14.2418 8.04301L14.6225 8.31807L14.7219 8.39128C14.8833 8.51137 15.0143 8.66754 15.1047 8.84731C15.195 9.02708 15.242 9.22547 15.242 9.42665C15.242 9.62783 15.195 9.82623 15.1047 10.006C15.0143 10.1858 14.8833 10.3419 14.7219 10.462L14.3841 10.7078L13.9239 11.0299L13.5516 11.2799L13.128 11.5549L12.6542 11.8509L12.1324 12.1646L11.5739 12.4878L11.0416 12.7827L10.549 13.0442L10.0993 13.2743L9.69558 13.4709L9.04507 13.7721L8.80452 13.8767C8.61986 13.9563 8.41915 13.9916 8.2184 13.9798C8.01766 13.9681 7.82244 13.9096 7.64831 13.809C7.47418 13.7084 7.32597 13.5686 7.21549 13.4006C7.105 13.2325 7.03531 13.041 7.01197 12.8413L6.95131 12.2504L6.91784 11.8593L6.87392 11.1648L6.84986 10.6335L6.83417 10.0531C6.83231 9.95062 6.83092 9.84813 6.82999 9.74563L6.8279 9.42665C6.8279 9.21016 6.82999 9.001 6.83417 8.79915L6.84986 8.21871L6.87392 7.68847L6.90215 7.21053L6.93353 6.79115L7.01197 6.01305C7.03517 5.8131 7.10479 5.62135 7.21527 5.45309C7.32574 5.28482 7.47401 5.14471 7.64825 5.04393C7.82249 4.94314 8.01787 4.88448 8.21881 4.87261C8.41975 4.86074 8.62068 4.896 8.80557 4.97558ZM9.44458 7.59121L8.98859 7.36322L8.95826 7.87254L8.93525 8.4488L8.92166 9.08676L8.91957 9.42665L8.92166 9.76655L8.93525 10.4035L8.94571 10.6994L8.9729 11.2433L8.98859 11.489L9.44248 11.261L9.95181 10.9933L10.5113 10.6858L10.8083 10.5164L11.3846 10.1755L11.9012 9.85544L12.3572 9.56261L12.5622 9.42665L12.1366 9.14428L11.6492 8.8368C11.3719 8.66513 11.0919 8.49777 10.8094 8.3348L10.5134 8.16642L9.95494 7.85895L9.44458 7.59121Z" fill="white"/>
</svg>
